<?xml version="1.0" encoding="utf-8"?>
<!-- Generator: Adobe Illustrator 22.0.1, SVG Export Plug-In . SVG Version: 6.00 Build 0)  -->
<svg version="1.1" id="Layer_1" xmlns="http://www.w3.org/2000/svg" xmlns:xlink="http://www.w3.org/1999/xlink" x="0px" y="0px"
	 viewBox="0 0 227.4 118.7" style="enable-background:new 0 0 227.4 118.7;" xml:space="preserve">
<style type="text/css">
	.st0{fill:#524050;}
	.st1{fill:#F21400;}
</style>
<path class="st0" d="M22.4,3.1v40.1h-0.1c-0.1,1.4-0.3,2.6-0.7,3.8c-1,3.3-2.9,6.3-5.7,8.8S9.8,60,6.1,60.9
	c-1.3,0.3-2.8,0.5-4.4,0.6v-8.9c0.4-0.1,0.9-0.1,1.3-0.2c0.1,0,0.2,0,0.4-0.1h0.2c2.1-0.5,3.8-1.5,5.3-2.8s2.5-2.9,3.2-4.8
	c0.1-0.3,0.2-1,0.4-2V3.1C12.5,3.1,22.4,3.1,22.4,3.1z M62,3.2v27.1c0,3.1-0.8,5.9-2.3,8.2s-3.6,4.1-6.3,5.3s-5.8,1.8-9.3,1.8
	c-3.3,0-6.1-0.5-8.6-1.6s-4.4-2.7-5.7-4.9c-1.4-2.2-2.1-4.9-2.1-8.2V3.1h10.2V28c0,1.6,0.2,3,0.6,4.2c0.4,1.2,1.1,2.2,2,2.9
	s2.2,1.1,3.8,1.1c3,0,5-0.9,6-2.7c0.9-1.8,1.4-4.4,1.4-7.7V3.1C51.7,3.1,62,3.2,62,3.2z M84.5,14.1c-1.2-1.2-2.3-2-3.2-2.4
	c-1-0.5-2.1-0.8-3.4-0.8c-1,0-1.9,0.3-2.7,0.9c-0.9,0.6-1.3,1.4-1.3,2.4c0,1.4,1,2.5,2.9,3.3c2,0.8,4,1.7,6,2.4
	c2.1,0.8,3.9,2.1,5.4,3.9s2.3,4.4,2.3,7.9c0,4.5-1.3,7.9-4,10.3c-2.7,2.4-6,3.6-10.2,3.6c-2.4,0-4.7-0.4-6.9-1.2
	c-2.2-0.8-4.2-2.1-5.9-3.7l5.5-7.9c1.8,2.2,4.1,3.3,6.9,3.3c1.2,0,2.3-0.3,3.3-1c1-0.6,1.6-1.5,1.6-2.8c0-1.4-1-2.6-2.9-3.4
	c-0.9-0.4-1.9-0.8-3-1.3L73.4,27l-1.6-0.6c-2.1-0.9-3.9-2.2-5.4-3.9c-1.5-1.7-2.2-4.3-2.2-7.7c0-2.6,0.6-4.9,1.9-6.9
	c1.2-1.9,2.9-3.4,5-4.5c2-1,4.2-1.5,6.5-1.5c2.1,0,4.3,0.4,6.3,1.2c2.1,0.9,4,2.1,5.5,3.6L84.5,14.1L84.5,14.1z M100.5,12.6h-8
	L90,3.1h28.2l2.5,9.5h-9.9v32.1h-10.2L100.5,12.6L100.5,12.6z"/>
<path class="st1" d="M1.8,72.6H14c3.1,0,5.9,0.3,8.4,1c2.5,0.7,4.5,1.8,6.1,3.5c1.5,1.6,2.3,3.7,2.3,6.4c0,2-0.5,3.8-1.5,5.3
	s-2.4,2.7-4.1,3.4v0.1c1,0.4,1.9,0.9,2.8,1.6c0.8,0.6,1.6,1.4,2.2,2.3c0.6,0.9,1.1,1.8,1.4,2.9c0.3,1.1,0.5,2.2,0.5,3.5
	c0,3.5-1.3,6.3-3.9,8.4c-2.6,2.1-6.5,3.2-11.8,3.2H1.7V72.6H1.8z M12.5,80.8v8.4h2.7c1.7,0,2.9-0.4,3.8-1.1c0.8-0.7,1.3-1.8,1.3-3.2
	c0-1.5-0.5-2.5-1.6-3.2c-1.1-0.6-2.3-0.9-3.8-0.9H12.5z M12.5,97.4v8.7h2.8c4.1,0,6.1-1.4,6.1-4.2c0-1.8-0.5-3-1.6-3.5
	c-1.1-0.6-2.6-0.9-4.6-0.9L12.5,97.4L12.5,97.4z M66.6,74.6c3.4,2,6,4.6,8,7.9c2,3.4,3,7,3,11s-1,7.6-3,10.9c-2,3.3-4.6,6-8,7.9
	s-7,2.9-11,2.9c-3.9,0-7.6-1-11-2.9c-3.4-2-6.1-4.6-8-7.9c-2-3.3-3-7-3-10.9c0-3.9,1-7.6,3-11c2-3.3,4.6-5.9,8-7.9
	c3.4-1.9,7-2.9,11-2.9S63.2,72.6,66.6,74.6z M49.7,82.9c-1.8,1.1-3.3,2.7-4.3,4.6c-1.1,1.9-1.6,3.9-1.6,6s0.5,4.1,1.6,6
	s2.5,3.5,4.3,4.6c1.8,1.2,3.8,1.7,5.9,1.7c2.1,0,4.1-0.6,5.9-1.7c1.8-1.1,3.2-2.7,4.3-4.6c1.1-1.9,1.6-3.9,1.6-6
	c0-2.1-0.5-4.1-1.6-6c-1.1-1.9-2.5-3.4-4.3-4.6c-1.8-1.2-3.8-1.7-5.9-1.7C53.5,81.2,51.5,81.7,49.7,82.9z M112,74.6
	c3.4,2,6,4.6,8,7.9c2,3.4,3,7,3,11s-1,7.6-3,10.9c-2,3.3-4.6,6-8,7.9s-7,2.9-11,2.9c-3.9,0-7.6-1-11-2.9c-3.4-2-6.1-4.6-8-7.9
	c-2-3.3-3-7-3-10.9c0-3.9,1-7.6,3-11c2-3.3,4.6-5.9,8-7.9c3.4-1.9,7-2.9,11-2.9S108.6,72.6,112,74.6L112,74.6z M95.1,82.9
	c-1.8,1.1-3.3,2.7-4.3,4.6c-1.1,1.9-1.6,3.9-1.6,6s0.5,4.1,1.6,6s2.5,3.5,4.3,4.6c1.8,1.2,3.8,1.7,5.9,1.7c2.1,0,4.1-0.6,5.9-1.7
	c1.8-1.1,3.2-2.7,4.3-4.6c1.1-1.9,1.6-3.9,1.6-6c0-2.1-0.5-4.1-1.6-6c-1.1-1.9-2.5-3.4-4.3-4.6c-1.8-1.2-3.8-1.7-5.9-1.7
	C98.9,81.2,96.9,81.7,95.1,82.9z M134.2,95.5v18.6h-9.8V72.6h9.8v19.8l12.1-19.8h11L144.2,94l13.2,20.1h-11L134.2,95.5z
	 M185.2,114.2h-26.4V72.6h26.4v8.9H169v7.2h8.2l2.4,8.8H169v8h16.2V114.2z M186.7,114.2V72.6h14.9c3,0,5.9,0.5,8.6,1.6
	c2.6,1,5,2.5,7,4.4c2,1.8,3.5,4.1,4.7,6.7c1.1,2.6,1.7,5.3,1.7,8.2s-0.6,5.6-1.7,8.1c-1.2,2.6-2.7,4.8-4.7,6.7c-2,1.9-4.4,3.3-7,4.4
	c-2.7,1.1-5.5,1.6-8.5,1.6h-15V114.2z M197.3,81.5v24h3.3c1.7,0,3.3-0.3,4.8-1c1.5-0.6,2.8-1.5,4-2.7c1.2-1.2,2-2.4,2.6-3.9
	c0.6-1.4,0.9-2.9,0.9-4.5c0-1.5-0.3-3-0.9-4.6c-0.6-1.5-1.5-2.7-2.6-3.8s-2.4-1.9-4-2.6c-1.5-0.6-3.2-1-4.8-1L197.3,81.5L197.3,81.5
	z"/>
</svg>
