<svg id="Layer_1" xmlns="http://www.w3.org/2000/svg" viewBox="0 0 361.9 64.2"><style>.st0,.st1{fill:#fff}</style><path class="st0" d="M22.4 3.1v40.1h-.1c-.1 1.4-.3 2.6-.7 3.8-1 3.3-2.9 6.3-5.7 8.8-2.8 2.5-6.1 4.2-9.8 5.1-1.3.3-2.8.5-4.4.6v-8.9c.4-.1.9-.1 1.3-.2.1 0 .2 0 .4-.1h.2c2.1-.5 3.8-1.5 5.3-2.8 1.5-1.3 2.5-2.9 3.2-4.8.1-.3.2-1 .4-2V3.1h9.9zm39.6.1v27.1c0 3.1-.8 5.9-2.3 8.2-1.5 2.3-3.6 4.1-6.3 5.3-2.7 1.2-5.8 1.8-9.3 1.8-3.3 0-6.1-.5-8.6-1.6s-4.4-2.7-5.7-4.9c-1.4-2.2-2.1-4.9-2.1-8.2V3.1h10.2V28c0 1.6.2 3 .6 4.2.4 1.2 1.1 2.2 2 2.9.9.7 2.2 1.1 3.8 1.1 3 0 5-.9 6-2.7.9-1.8 1.4-4.4 1.4-7.7V3.1l10.3.1zm22.5 10.9c-1.2-1.2-2.3-2-3.2-2.4-1-.5-2.1-.8-3.4-.8-1 0-1.9.3-2.7.9-.9.6-1.3 1.4-1.3 2.4 0 1.4 1 2.5 2.9 3.3 2 .8 4 1.7 6 2.4 2.1.8 3.9 2.1 5.4 3.9 1.5 1.8 2.3 4.4 2.3 7.9 0 4.5-1.3 7.9-4 10.3-2.7 2.4-6 3.6-10.2 3.6-2.4 0-4.7-.4-6.9-1.2-2.2-.8-4.2-2.1-5.9-3.7l5.5-7.9c1.8 2.2 4.1 3.3 6.9 3.3 1.2 0 2.3-.3 3.3-1 1-.6 1.6-1.5 1.6-2.8 0-1.4-1-2.6-2.9-3.4-.9-.4-1.9-.8-3-1.3l-1.5-.6-1.6-.6c-2.1-.9-3.9-2.2-5.4-3.9-1.5-1.7-2.2-4.3-2.2-7.7 0-2.6.6-4.9 1.9-6.9 1.2-1.9 2.9-3.4 5-4.5 2-1 4.2-1.5 6.5-1.5 2.1 0 4.3.4 6.3 1.2 2.1.9 4 2.1 5.5 3.6l-4.9 7.4zm16-1.5h-8L90 3.1h28.2l2.5 9.5h-9.9v32.1h-10.2V12.6z"/><path class="st1" d="M137.6 3.1h12.2c3.1 0 5.9.3 8.4 1s4.5 1.8 6.1 3.5c1.5 1.6 2.3 3.7 2.3 6.4 0 2-.5 3.8-1.5 5.3s-2.4 2.7-4.1 3.4v.1c1 .4 1.9.9 2.8 1.6.8.6 1.6 1.4 2.2 2.3.6.9 1.1 1.8 1.4 2.9.3 1.1.5 2.2.5 3.5 0 3.5-1.3 6.3-3.9 8.4-2.6 2.1-6.5 3.2-11.8 3.2h-14.7V3.1zm10.7 8.2v8.4h2.7c1.7 0 2.9-.4 3.8-1.1.8-.7 1.3-1.8 1.3-3.2 0-1.5-.5-2.5-1.6-3.2-1.1-.6-2.3-.9-3.8-.9h-2.4zm0 16.6v8.7h2.8c4.1 0 6.1-1.4 6.1-4.2 0-1.8-.5-3-1.6-3.5-1.1-.6-2.6-.9-4.6-.9h-2.7zm54.1-22.8c3.4 2 6 4.6 8 7.9 2 3.4 3 7 3 11s-1 7.6-3 10.9c-2 3.3-4.6 6-8 7.9-3.4 1.9-7 2.9-11 2.9-3.9 0-7.6-1-11-2.9-3.4-2-6.1-4.6-8-7.9-2-3.3-3-7-3-10.9 0-3.9 1-7.6 3-11 2-3.3 4.6-5.9 8-7.9 3.4-1.9 7-2.9 11-2.9s7.6.9 11 2.9zm-16.9 8.3a11.9 11.9 0 0 0-4.3 4.6c-1.1 1.9-1.6 3.9-1.6 6s.5 4.1 1.6 6c1.1 1.9 2.5 3.5 4.3 4.6 1.8 1.2 3.8 1.7 5.9 1.7 2.1 0 4.1-.6 5.9-1.7 1.8-1.1 3.2-2.7 4.3-4.6 1.1-1.9 1.6-3.9 1.6-6s-.5-4.1-1.6-6c-1.1-1.9-2.5-3.4-4.3-4.6-1.8-1.2-3.8-1.7-5.9-1.7-2.1 0-4.1.5-5.9 1.7zm62.3-8.3c3.4 2 6 4.6 8 7.9 2 3.4 3 7 3 11s-1 7.6-3 10.9c-2 3.3-4.6 6-8 7.9-3.4 1.9-7 2.9-11 2.9-3.9 0-7.6-1-11-2.9-3.4-2-6.1-4.6-8-7.9-2-3.3-3-7-3-10.9 0-3.9 1-7.6 3-11 2-3.3 4.6-5.9 8-7.9 3.4-1.9 7-2.9 11-2.9s7.6.9 11 2.9zm-16.9 8.3a11.9 11.9 0 0 0-4.3 4.6c-1.1 1.9-1.6 3.9-1.6 6s.5 4.1 1.6 6c1.1 1.9 2.5 3.5 4.3 4.6 1.8 1.2 3.8 1.7 5.9 1.7 2.1 0 4.1-.6 5.9-1.7 1.8-1.1 3.2-2.7 4.3-4.6 1.1-1.9 1.6-3.9 1.6-6s-.5-4.1-1.6-6c-1.1-1.9-2.5-3.4-4.3-4.6-1.8-1.2-3.8-1.7-5.9-1.7-2.1 0-4.1.5-5.9 1.7zM270 26v18.6h-9.8V3.1h9.8v19.8l12.1-19.8h11L280 24.5l13.2 20.1h-11L270 26zm51 18.7h-26.4V3.1H321V12h-16.2v7.2h8.2l2.4 8.8h-10.6v8H321v8.7zm1.5 0V3.1h14.9c3 0 5.9.5 8.6 1.6 2.6 1 5 2.5 7 4.4 2 1.8 3.5 4.1 4.7 6.7 1.1 2.6 1.7 5.3 1.7 8.2 0 2.9-.6 5.6-1.7 8.1-1.2 2.6-2.7 4.8-4.7 6.7-2 1.9-4.4 3.3-7 4.4-2.7 1.1-5.5 1.6-8.5 1.6h-15zM333.1 12v24h3.3c1.7 0 3.3-.3 4.8-1 1.5-.6 2.8-1.5 4-2.7 1.2-1.2 2-2.4 2.6-3.9.6-1.4.9-2.9.9-4.5 0-1.5-.3-3-.9-4.6-.6-1.5-1.5-2.7-2.6-3.8-1.1-1.1-2.4-1.9-4-2.6-1.5-.6-3.2-1-4.8-1h-3.3z"/></svg>