<?xml version="1.0" standalone="no"?>
<!DOCTYPE svg PUBLIC "-//W3C//DTD SVG 20010904//EN"
 "http://www.w3.org/TR/2001/REC-SVG-20010904/DTD/svg10.dtd">
<svg version="1.0" xmlns="http://www.w3.org/2000/svg"
 width="260.000000pt" height="260.000000pt" viewBox="0 0 260.000000 260.000000"
 preserveAspectRatio="xMidYMid meet">
<metadata>
Created by potrace 1.11, written by Peter Selinger 2001-2013
</metadata>
<g transform="translate(0.000000,260.000000) scale(0.100000,-0.100000)"
fill="#000000" stroke="none">
<path d="M608 2172 c-21 -3 -28 -9 -29 -25 0 -12 0 -309 -1 -660 0 -707 0
-700 -64 -794 -58 -85 -148 -141 -266 -167 l-28 -6 0 -151 0 -150 48 6 c271
38 473 174 581 392 60 121 60 122 61 871 l0 682 -67 1 c-38 0 -99 1 -138 2
-38 1 -82 1 -97 -1z"/>
<path d="M1290 1474 l0 -696 323 5 c256 3 335 8 386 21 124 32 218 102 265
195 61 120 50 277 -26 383 -38 52 -60 72 -116 105 l-44 26 46 28 c96 60 142
162 133 294 -7 96 -31 150 -96 206 -114 101 -236 127 -603 129 l-268 1 0 -697z
m523 407 c52 -17 79 -52 85 -109 9 -99 -52 -152 -177 -152 l-70 0 -3 103 c-2
56 -2 118 0 138 l3 36 64 -2 c35 -2 79 -8 98 -14z m35 -552 c44 -12 91 -57 93
-87 0 -9 2 -27 3 -40 4 -35 -30 -99 -61 -115 -37 -19 -74 -26 -158 -29 l-70
-3 -5 142 -5 142 30 3 c50 5 128 -1 173 -13z"/>
</g>
</svg>
