<svg id="Layer_1" data-name="Layer 1" xmlns="http://www.w3.org/2000/svg" viewBox="0 0 256 256"><defs><style>.cls-1{fill:#ff3232;}</style></defs><title>failed-icon</title><path class="cls-1" d="M128,0A128,128,0,1,0,256,128,128,128,0,0,0,128,0Zm0,253A125,125,0,1,1,253,128,125,125,0,0,1,128,253Z"/><path class="cls-1" d="M185.2,70.8a3.38,3.38,0,0,0-4.9,0L128,123.1,75.8,70.8a3.46,3.46,0,1,0-4.9,4.9l52.2,52.2L70.9,180.1a3.46,3.46,0,1,0,4.9,4.9L128,132.8,180.2,185a3.46,3.46,0,0,0,4.9-4.9L132.9,128l52.2-52.2A3.42,3.42,0,0,0,185.2,70.8Z"/></svg>