<?xml version="1.0" encoding="utf-8"?>
<!-- Generator: Adobe Illustrator 22.0.1, SVG Export Plug-In . SVG Version: 6.00 Build 0)  -->
<svg version="1.1" id="Layer_1" xmlns="http://www.w3.org/2000/svg" xmlns:xlink="http://www.w3.org/1999/xlink" x="0px" y="0px"
	 viewBox="0 0 256 256" style="enable-background:new 0 0 256 256;" xml:space="preserve">
<style type="text/css">
	.st0{fill:#01D50F;}
</style>
<g>
	<path class="st0" d="M128,0C57.3,0,0,57.3,0,128s57.3,128,128,128s128-57.3,128-128S198.7,0,128,0z M128,253C59,253,3,197,3,128
		S59,3,128,3s125,56,125,125S197,253,128,253z"/>
	<path class="st0" d="M209.2,60.7c-1.6-1.1-3.8-0.6-4.9,1l-83.8,125.7L50.7,137c-1.6-1.1-3.8-0.8-4.9,0.8c-1.1,1.6-0.8,3.8,0.8,4.9
		l72.3,52.2c0.2,0.2,0.3,0.3,0.5,0.4c1.6,1.1,3.8,0.6,4.9-1l85.9-128.7C211.3,64,210.8,61.8,209.2,60.7z"/>
</g>
</svg>
