<svg xmlns="http://www.w3.org/2000/svg" width="24" height="24" viewBox="0 0 24 24"><g fill="none" fill-rule="evenodd"><path fill="currentColor" d="M3.165 9.39H20.21v9.296a1.53 1.53 0 0 1-1.525 1.53H4.696c-.84 0-1.531-.687-1.531-1.53V9.39zm1.531-4.548H6.96v1.245a.426.426 0 1 0 .853.003V4.841h7.683v1.245a.425.425 0 1 0 .851.003V4.841h2.338c.84 0 1.525.688 1.525 1.533v2.163H3.165V6.375c0-.845.691-1.533 1.531-1.533zM7.34 2.313a.425.425 0 0 0-.38.433V3.99H4.696a2.395 2.395 0 0 0-2.383 2.384v12.31a2.395 2.395 0 0 0 2.383 2.383h13.989a2.389 2.389 0 0 0 2.376-2.382V8.99a.092.092 0 0 0 0-.026.301.301 0 0 0 0-.048V6.375a2.389 2.389 0 0 0-2.376-2.384h-2.337V2.746a.426.426 0 0 0-.42-.433h-.013a.426.426 0 0 0-.419.433V3.99H7.812V2.746a.426.426 0 0 0-.42-.433H7.38a.214.214 0 0 0-.04 0z"/><path stroke="currentColor" stroke-width=".5" d="M3.165 9.39H20.21v9.296a1.53 1.53 0 0 1-1.525 1.53H4.696c-.84 0-1.531-.687-1.531-1.53V9.39zm1.531-4.548H6.96v1.245a.426.426 0 1 0 .853.003V4.841h7.683v1.245a.425.425 0 1 0 .851.003V4.841h2.338c.84 0 1.525.688 1.525 1.533v2.163H3.165V6.375c0-.845.691-1.533 1.531-1.533zM7.34 2.313a.425.425 0 0 0-.38.433V3.99H4.696a2.395 2.395 0 0 0-2.383 2.384v12.31a2.395 2.395 0 0 0 2.383 2.383h13.989a2.389 2.389 0 0 0 2.376-2.382V8.99a.092.092 0 0 0 0-.026.301.301 0 0 0 0-.048V6.375a2.389 2.389 0 0 0-2.376-2.384h-2.337V2.746a.426.426 0 0 0-.42-.433h-.013a.426.426 0 0 0-.419.433V3.99H7.812V2.746a.426.426 0 0 0-.42-.433H7.38a.214.214 0 0 0-.04 0z"/></g></svg>