<svg xmlns="http://www.w3.org/2000/svg" width="33" height="22" viewBox="0 0 33 22"><g fill="none" fill-rule="evenodd"><path fill="#fff" d="M19.736 13.921a.37.37 0 0 0 .068.736h8.828a.368.368 0 0 0 .01-.736h-8.838a.358.358 0 0 0-.068 0zm0-2.574a.37.37 0 0 0 .068.735h8.828a.368.368 0 0 0 .01-.735h-8.838a.358.358 0 0 0-.068 0zm0-2.575a.37.37 0 0 0 .068.735h8.828a.368.368 0 0 0 .01-.735h-8.838a.358.358 0 0 0-.068 0zm-3.242-3.31h15.449v12.505h-1.84a.368.368 0 0 0-.368.368v2.126l-2.7-2.402a.368.368 0 0 0-.242-.092H16.494V5.461zM1.781 1.782h15.45v2.943h-1.105a.358.358 0 0 0-.069 0 .368.368 0 0 0-.299.368v9.195H6.931a.368.368 0 0 0-.241.092l-2.702 2.402v-2.126a.367.367 0 0 0-.367-.368H1.78V1.783zm-.436-.735a.368.368 0 0 0-.3.367v13.242c0 .203.166.368.369.368h1.839v2.574a.368.368 0 0 0 .61.276l3.206-2.85h8.69v3.31c0 .203.164.368.367.368h10.529l3.207 2.85a.368.368 0 0 0 .61-.275v-2.575h1.839a.368.368 0 0 0 .367-.368V5.094a.368.368 0 0 0-.367-.368H17.966v-3.31a.368.368 0 0 0-.368-.368H1.414a.358.358 0 0 0-.07 0z"/><path stroke="#fff" stroke-width=".25" d="M19.736 13.921a.37.37 0 0 0 .068.736h8.828a.368.368 0 0 0 .01-.736h-8.838a.358.358 0 0 0-.068 0zm0-2.574a.37.37 0 0 0 .068.735h8.828a.368.368 0 0 0 .01-.735h-8.838a.358.358 0 0 0-.068 0zm0-2.575a.37.37 0 0 0 .068.735h8.828a.368.368 0 0 0 .01-.735h-8.838a.358.358 0 0 0-.068 0zm-3.242-3.31h15.449v12.505h-1.84a.368.368 0 0 0-.368.368v2.126l-2.7-2.402a.368.368 0 0 0-.242-.092H16.494V5.461zM1.781 1.782h15.45v2.943h-1.105a.358.358 0 0 0-.069 0 .368.368 0 0 0-.299.368v9.195H6.931a.368.368 0 0 0-.241.092l-2.702 2.402v-2.126a.367.367 0 0 0-.367-.368H1.78V1.783zm-.436-.735a.368.368 0 0 0-.3.367v13.242c0 .203.166.368.369.368h1.839v2.574a.368.368 0 0 0 .61.276l3.206-2.85h8.69v3.31c0 .203.164.368.367.368h10.529l3.207 2.85a.368.368 0 0 0 .61-.275v-2.575h1.839a.368.368 0 0 0 .367-.368V5.094a.368.368 0 0 0-.367-.368H17.966v-3.31a.368.368 0 0 0-.368-.368H1.414a.358.358 0 0 0-.07 0z"/></g></svg>