<svg xmlns="http://www.w3.org/2000/svg" width="24" height="24" viewBox="0 0 24 24"><path fill="#f21400" fill-rule="evenodd" d="M17.51 15.327c-.771 0-1.506.257-2.13.734l-5.584-3.085c.11-.331.184-.735.184-1.14a3.89 3.89 0 0 0-.184-1.138l5.877-3.27a3.65 3.65 0 0 0 1.837.515c1.91 0 3.49-1.58 3.49-3.49C21 2.543 19.42 1 17.51 1c-1.91 0-3.49 1.58-3.49 3.49 0 .55.11 1.065.368 1.543l-5.62 3.159c-.625-.551-1.397-.845-2.278-.845-1.91 0-3.49 1.58-3.49 3.49 0 1.91 1.58 3.49 3.49 3.49.845 0 1.653-.294 2.277-.845l5.51 3.049c-.146.404-.257.845-.257 1.285 0 1.91 1.58 3.49 3.49 3.49 1.91 0 3.49-1.58 3.49-3.49 0-1.91-1.58-3.49-3.49-3.49"/></svg>